<svg width="1909" height="715" viewBox="0 0 1909 715" fill="none" xmlns="http://www.w3.org/2000/svg">
<path d="M0 53.5828L31.8167 47.3838C63.6333 41.1849 127.267 28.787 190.9 21.9676C254.533 14.9425 318.167 13.7027 381.8 36.6382C445.433 59.7818 509.067 107.306 572.7 123.423C636.333 139.748 699.967 124.458 763.6 105.24C827.233 86.0241 890.867 62.4682 954.5 71.1467C1018.13 79.8252 1081.77 120.325 1145.4 145.534C1209.03 170.742 1272.67 180.248 1336.3 174.049C1399.93 167.85 1463.57 145.946 1527.2 108.34C1590.83 70.733 1654.47 17.8357 1718.1 3.99124C1781.73 -9.85326 1845.37 15.7687 1877.18 28.3734L1909 41.1849V714.805H1877.18C1845.37 714.805 1781.73 714.805 1718.1 714.805C1654.47 714.805 1590.83 714.805 1527.2 714.805C1463.57 714.805 1399.93 714.805 1336.3 714.805C1272.67 714.805 1209.03 714.805 1145.4 714.805C1081.77 714.805 1018.13 714.805 954.5 714.805C890.867 714.805 827.233 714.805 763.6 714.805C699.967 714.805 636.333 714.805 572.7 714.805C509.067 714.805 445.433 714.805 381.8 714.805C318.167 714.805 254.533 714.805 190.9 714.805C127.267 714.805 63.6333 714.805 31.8167 714.805H0V53.5828Z" fill="#87CFFF"/>
<path d="M0 154.832L31.8167 147.187C63.6333 139.748 127.267 124.457 190.9 131.483C254.533 138.301 318.167 167.23 381.8 194.505C445.433 221.574 509.067 247.196 572.7 245.337C636.333 243.683 699.967 214.756 763.6 191.612C827.233 168.677 890.867 151.32 954.5 161.65C1018.13 171.982 1081.77 210.002 1145.4 223.434C1209.03 236.865 1272.67 225.707 1336.3 201.944C1399.93 178.181 1463.57 141.814 1527.2 121.771C1590.83 101.728 1654.47 98.4211 1718.1 114.126C1781.73 130.036 1845.37 165.164 1877.18 182.727L1909 200.291V714.805H1877.18C1845.37 714.805 1781.73 714.805 1718.1 714.805C1654.47 714.805 1590.83 714.805 1527.2 714.805C1463.57 714.805 1399.93 714.805 1336.3 714.805C1272.67 714.805 1209.03 714.805 1145.4 714.805C1081.77 714.805 1018.13 714.805 954.5 714.805C890.867 714.805 827.233 714.805 763.6 714.805C699.967 714.805 636.333 714.805 572.7 714.805C509.067 714.805 445.433 714.805 381.8 714.805C318.167 714.805 254.533 714.805 190.9 714.805C127.267 714.805 63.6333 714.805 31.8167 714.805H0V154.832Z" fill="#75BBEC"/>
<path d="M0 349.065L31.8167 330.056C63.6333 311.252 127.267 273.232 190.9 260.627C254.533 247.816 318.167 260.214 381.8 265.793C445.433 271.165 509.067 269.925 572.7 250.916C636.333 231.905 699.967 195.538 763.6 185.826C827.233 176.115 890.867 193.472 954.5 202.77C1018.13 212.069 1081.77 213.309 1145.4 221.987C1209.03 230.666 1272.67 246.369 1336.3 244.717C1399.93 243.064 1463.57 223.641 1527.2 223.02C1590.83 222.401 1654.47 240.17 1718.1 263.933C1781.73 287.696 1845.37 317.451 1877.18 332.122L1909 346.999V714.805H1877.18C1845.37 714.805 1781.73 714.805 1718.1 714.805C1654.47 714.805 1590.83 714.805 1527.2 714.805C1463.57 714.805 1399.93 714.805 1336.3 714.805C1272.67 714.805 1209.03 714.805 1145.4 714.805C1081.77 714.805 1018.13 714.805 954.5 714.805C890.867 714.805 827.233 714.805 763.6 714.805C699.967 714.805 636.333 714.805 572.7 714.805C509.067 714.805 445.433 714.805 381.8 714.805C318.167 714.805 254.533 714.805 190.9 714.805C127.267 714.805 63.6333 714.805 31.8167 714.805H0V349.065Z" fill="#64A8D9"/>
<path d="M0 365.596L31.8167 369.109C63.6333 372.414 127.267 379.441 190.9 388.326C254.533 397.21 318.167 408.368 381.8 391.011C445.433 373.861 509.067 328.402 572.7 312.285C636.333 295.961 699.967 309.185 763.6 326.336C827.233 343.487 890.867 364.976 954.5 371.381C1018.13 377.994 1081.77 369.729 1145.4 372.828C1209.03 375.928 1272.67 390.392 1336.3 398.657C1399.93 406.923 1463.57 408.989 1527.2 402.376C1590.83 395.97 1654.47 380.68 1718.1 364.149C1781.73 347.619 1845.37 329.849 1877.18 320.757L1909 311.871V714.805H1877.18C1845.37 714.805 1781.73 714.805 1718.1 714.805C1654.47 714.805 1590.83 714.805 1527.2 714.805C1463.57 714.805 1399.93 714.805 1336.3 714.805C1272.67 714.805 1209.03 714.805 1145.4 714.805C1081.77 714.805 1018.13 714.805 954.5 714.805C890.867 714.805 827.233 714.805 763.6 714.805C699.967 714.805 636.333 714.805 572.7 714.805C509.067 714.805 445.433 714.805 381.8 714.805C318.167 714.805 254.533 714.805 190.9 714.805C127.267 714.805 63.6333 714.805 31.8167 714.805H0V365.596Z" fill="#5295C6"/>
<path d="M0 421.386L31.8167 416.841C63.6333 412.501 127.267 403.41 190.9 409.402C254.533 415.187 318.167 435.85 381.8 447.835C445.433 460.026 509.067 463.332 572.7 461.266C636.333 459.199 699.967 451.76 763.6 447.215C827.233 442.669 890.867 441.43 954.5 439.983C1018.13 438.536 1081.77 437.297 1145.4 429.651C1209.03 422.005 1272.67 408.369 1336.3 411.468C1399.93 414.568 1463.57 434.403 1527.2 449.901C1590.83 465.398 1654.47 476.556 1718.1 482.343C1781.73 488.128 1845.37 488.954 1877.18 489.161L1909 489.575V714.805H1877.18C1845.37 714.805 1781.73 714.805 1718.1 714.805C1654.47 714.805 1590.83 714.805 1527.2 714.805C1463.57 714.805 1399.93 714.805 1336.3 714.805C1272.67 714.805 1209.03 714.805 1145.4 714.805C1081.77 714.805 1018.13 714.805 954.5 714.805C890.867 714.805 827.233 714.805 763.6 714.805C699.967 714.805 636.333 714.805 572.7 714.805C509.067 714.805 445.433 714.805 381.8 714.805C318.167 714.805 254.533 714.805 190.9 714.805C127.267 714.805 63.6333 714.805 31.8167 714.805H0V421.386Z" fill="#4083B3"/>
<path d="M0 462.713L31.8167 469.531C63.6333 476.556 127.267 490.195 190.9 491.021C254.533 491.641 318.167 479.243 381.8 476.558C445.433 473.664 509.067 480.689 572.7 478.83C636.333 477.177 699.967 466.845 763.6 469.945C827.233 473.044 890.867 489.575 954.5 503.419C1018.13 517.057 1081.77 528.215 1145.4 529.455C1209.03 530.901 1272.67 522.635 1336.3 517.469C1399.93 512.305 1463.57 510.238 1527.2 517.883C1590.83 525.322 1654.47 542.679 1718.1 542.265C1781.73 541.853 1845.37 524.082 1877.18 514.99L1909 506.106V714.805H1877.18C1845.37 714.805 1781.73 714.805 1718.1 714.805C1654.47 714.805 1590.83 714.805 1527.2 714.805C1463.57 714.805 1399.93 714.805 1336.3 714.805C1272.67 714.805 1209.03 714.805 1145.4 714.805C1081.77 714.805 1018.13 714.805 954.5 714.805C890.867 714.805 827.233 714.805 763.6 714.805C699.967 714.805 636.333 714.805 572.7 714.805C509.067 714.805 445.433 714.805 381.8 714.805C318.167 714.805 254.533 714.805 190.9 714.805C127.267 714.805 63.6333 714.805 31.8167 714.805H0V462.713Z" fill="#2E71A1"/>
<path d="M0 572.227L31.8167 569.128C63.6333 566.028 127.267 559.829 190.9 558.177C254.533 556.316 318.167 559.21 381.8 572.847C445.433 586.692 509.067 611.488 572.7 619.753C636.333 628.017 699.967 619.753 763.6 618.72C827.233 617.687 890.867 623.886 954.5 628.638C1018.13 633.597 1081.77 636.903 1145.4 630.704C1209.03 624.505 1272.67 608.801 1336.3 599.709C1399.93 590.824 1463.57 588.758 1527.2 591.444C1590.83 594.336 1654.47 601.775 1718.1 601.156C1781.73 600.535 1845.37 591.444 1877.18 587.104L1909 582.559V714.805H1877.18C1845.37 714.805 1781.73 714.805 1718.1 714.805C1654.47 714.805 1590.83 714.805 1527.2 714.805C1463.57 714.805 1399.93 714.805 1336.3 714.805C1272.67 714.805 1209.03 714.805 1145.4 714.805C1081.77 714.805 1018.13 714.805 954.5 714.805C890.867 714.805 827.233 714.805 763.6 714.805C699.967 714.805 636.333 714.805 572.7 714.805C509.067 714.805 445.433 714.805 381.8 714.805C318.167 714.805 254.533 714.805 190.9 714.805C127.267 714.805 63.6333 714.805 31.8167 714.805H0V572.227Z" fill="#185F8F"/>
</svg>
