<svg width="375" height="665" viewBox="0 0 375 665" fill="none" xmlns="http://www.w3.org/2000/svg">
<g clip-path="url(#clip0_254_10)">
<path d="M0 116.552L6.25 111.411C12.5 106.269 25 95.9856 37.5 90.3298C50 84.5025 62.5 83.4741 75 102.498C87.5 121.694 100 161.114 112.5 174.482C125 188.022 137.5 175.339 150 159.4C162.5 143.461 175 123.922 187.5 131.121C200 138.319 212.5 171.911 225 192.821C237.5 213.73 250 221.614 262.5 216.473C275 211.331 287.5 193.164 300 161.971C312.5 130.778 325 86.9019 337.5 75.4188C350 63.9357 362.5 85.188 368.75 95.6428L375 106.269V665H368.75C362.5 665 350 665 337.5 665C325 665 312.5 665 300 665C287.5 665 275 665 262.5 665C250 665 237.5 665 225 665C212.5 665 200 665 187.5 665C175 665 162.5 665 150 665C137.5 665 125 665 112.5 665C100 665 87.5 665 75 665C62.5 665 50 665 37.5 665C25 665 12.5 665 6.25 665H0V116.552Z" fill="#87CFFF"/>
<path d="M0 200.604L6.25 194.264C12.5 188.095 25 175.414 37.5 181.24C50 186.895 62.5 210.886 75 233.506C87.5 255.955 100 277.204 112.5 275.662C125 274.291 137.5 250.3 150 231.107C162.5 212.086 175 197.691 187.5 206.259C200 214.827 212.5 246.358 225 257.497C237.5 268.636 250 259.382 262.5 239.675C275 219.968 287.5 189.808 300 173.186C312.5 156.564 325 153.822 337.5 166.846C350 180.041 362.5 209.172 368.75 223.738L375 238.304V665H368.75C362.5 665 350 665 337.5 665C325 665 312.5 665 300 665C287.5 665 275 665 262.5 665C250 665 237.5 665 225 665C212.5 665 200 665 187.5 665C175 665 162.5 665 150 665C137.5 665 125 665 112.5 665C100 665 87.5 665 75 665C62.5 665 50 665 37.5 665C25 665 12.5 665 6.25 665H0V200.604Z" fill="#75BBEC"/>
<path d="M0 361.596L6.25 345.826C12.5 330.227 25 298.687 37.5 288.23C50 277.603 62.5 287.888 75 292.516C87.5 296.973 100 295.944 112.5 280.174C125 264.404 137.5 234.235 150 226.178C162.5 218.122 175 232.521 187.5 240.234C200 247.948 212.5 248.976 225 256.176C237.5 263.375 250 276.403 262.5 275.031C275 273.66 287.5 257.547 300 257.033C312.5 256.519 325 271.26 337.5 290.973C350 310.686 362.5 335.369 368.75 347.54L375 359.882V665H368.75C362.5 665 350 665 337.5 665C325 665 312.5 665 300 665C287.5 665 275 665 262.5 665C250 665 237.5 665 225 665C212.5 665 200 665 187.5 665C175 665 162.5 665 150 665C137.5 665 125 665 112.5 665C100 665 87.5 665 75 665C62.5 665 50 665 37.5 665C25 665 12.5 665 6.25 665H0V361.596Z" fill="#64A8D9"/>
<path d="M0 375.626L6.25 378.536C12.5 381.276 25 387.098 37.5 394.461C50 401.823 62.5 411.07 75 396.687C87.5 382.475 100 344.805 112.5 331.449C125 317.922 137.5 328.88 150 343.092C162.5 357.304 175 375.112 187.5 380.42C200 385.899 212.5 379.05 225 381.619C237.5 384.187 250 396.173 262.5 403.022C275 409.871 287.5 411.583 300 406.104C312.5 400.796 325 388.125 337.5 374.427C350 360.729 362.5 346.003 368.75 338.469L375 331.106V665H368.75C362.5 665 350 665 337.5 665C325 665 312.5 665 300 665C287.5 665 275 665 262.5 665C250 665 237.5 665 225 665C212.5 665 200 665 187.5 665C175 665 162.5 665 150 665C137.5 665 125 665 112.5 665C100 665 87.5 665 75 665C62.5 665 50 665 37.5 665C25 665 12.5 665 6.25 665H0V375.626Z" fill="#5295C6"/>
<path d="M0 421.794L6.25 418.026C12.5 414.429 25 406.894 37.5 411.86C50 416.656 62.5 433.783 75 443.717C87.5 453.822 100 456.562 112.5 454.85C125 453.137 137.5 446.971 150 443.203C162.5 439.435 175 438.408 187.5 437.209C200 436.01 212.5 434.982 225 428.645C237.5 422.308 250 411.004 262.5 413.573C275 416.142 287.5 432.584 300 445.43C312.5 458.275 325 467.524 337.5 472.319C350 477.115 362.5 477.8 368.75 477.971L375 478.314V665H368.75C362.5 665 350 665 337.5 665C325 665 312.5 665 300 665C287.5 665 275 665 262.5 665C250 665 237.5 665 225 665C212.5 665 200 665 187.5 665C175 665 162.5 665 150 665C137.5 665 125 665 112.5 665C100 665 87.5 665 75 665C62.5 665 50 665 37.5 665C25 665 12.5 665 6.25 665H0V421.794Z" fill="#4083B3"/>
<path d="M0 456.153L6.25 461.802C12.5 467.622 25 478.92 37.5 479.605C50 480.119 62.5 469.848 75 467.622C87.5 465.225 100 471.046 112.5 469.505C125 468.136 137.5 459.576 150 462.144C162.5 464.712 175 478.407 187.5 489.876C200 501.175 212.5 510.419 225 511.446C237.5 512.644 250 505.797 262.5 501.517C275 497.237 287.5 495.525 300 501.859C312.5 508.022 325 522.402 337.5 522.059C350 521.717 362.5 506.995 368.75 499.463L375 492.102V665H368.75C362.5 665 350 665 337.5 665C325 665 312.5 665 300 665C287.5 665 275 665 262.5 665C250 665 237.5 665 225 665C212.5 665 200 665 187.5 665C175 665 162.5 665 150 665C137.5 665 125 665 112.5 665C100 665 87.5 665 75 665C62.5 665 50 665 37.5 665C25 665 12.5 665 6.25 665H0V456.153Z" fill="#2E71A1"/>
<path d="M0 546.746L6.25 544.175C12.5 541.604 25 536.463 37.5 535.092C50 533.549 62.5 535.949 75 547.26C87.5 558.742 100 579.308 112.5 586.164C125 593.019 137.5 586.164 150 585.307C162.5 584.45 175 589.591 187.5 593.533C200 597.646 212.5 600.389 225 595.247C237.5 590.106 250 577.08 262.5 569.54C275 562.17 287.5 560.456 300 562.684C312.5 565.084 325 571.253 337.5 570.739C350 570.225 362.5 562.684 368.75 559.085L375 555.315V665H368.75C362.5 665 350 665 337.5 665C325 665 312.5 665 300 665C287.5 665 275 665 262.5 665C250 665 237.5 665 225 665C212.5 665 200 665 187.5 665C175 665 162.5 665 150 665C137.5 665 125 665 112.5 665C100 665 87.5 665 75 665C62.5 665 50 665 37.5 665C25 665 12.5 665 6.25 665H0V546.746Z" fill="#185F8F"/>
</g>
<defs>
<clipPath id="clip0_254_10">
<rect width="375" height="665" fill="white"/>
</clipPath>
</defs>
</svg>
