<svg width="50" height="50" viewBox="0 0 50 50" fill="none" xmlns="http://www.w3.org/2000/svg">
<g clip-path="url(#clip0_299_2)">
<g filter="url(#filter0_d_299_2)">
<path d="M11.4188 4.15001C11.2343 3.9127 11.0014 3.71736 10.7356 3.57696C10.4699 3.43656 10.1773 3.35432 9.87725 3.3357C9.57725 3.31708 9.27672 3.3625 8.99562 3.46896C8.71452 3.57541 8.45929 3.74046 8.24688 3.95313L5.01563 7.18751C3.50626 8.70001 2.95001 10.8406 3.60938 12.7188C6.34607 20.4925 10.7978 27.5503 16.6344 33.3688C22.4529 39.2053 29.5107 43.657 37.2844 46.3938C39.1625 47.0531 41.3031 46.4969 42.8156 44.9875L46.0469 41.7563C46.2596 41.5438 46.4246 41.2886 46.5311 41.0075C46.6375 40.7264 46.6829 40.4259 46.6643 40.1259C46.6457 39.8259 46.5635 39.5333 46.4231 39.2675C46.2827 39.0017 46.0873 38.7689 45.85 38.5844L38.6406 32.9781C38.3871 32.7815 38.0922 32.645 37.7782 32.579C37.4643 32.5129 37.1394 32.519 36.8281 32.5969L29.9844 34.3063C29.0709 34.5346 28.1138 34.5225 27.2064 34.2711C26.299 34.0197 25.4721 33.5377 24.8063 32.8719L17.1313 25.1938C16.4649 24.5282 15.9823 23.7015 15.7304 22.7941C15.4784 21.8866 15.4658 20.9294 15.6938 20.0156L17.4063 13.1719C17.4841 12.8606 17.4902 12.5357 17.4242 12.2218C17.3581 11.9078 17.2216 11.6129 17.025 11.3594L11.4188 4.15001ZM5.88751 1.59688C6.43437 1.04985 7.09134 0.625414 7.81482 0.35176C8.53829 0.0781066 9.3117 -0.0385038 10.0837 0.00967208C10.8557 0.057848 11.6086 0.269708 12.2924 0.631184C12.9763 0.992659 13.5754 1.49548 14.05 2.10626L19.6563 9.31251C20.6844 10.6344 21.0469 12.3563 20.6406 13.9813L18.9313 20.825C18.8429 21.1795 18.8477 21.5508 18.9451 21.9028C19.0426 22.2549 19.2294 22.5758 19.4875 22.8344L27.1656 30.5125C27.4245 30.7711 27.7459 30.9583 28.0986 31.0557C28.4513 31.1532 28.8232 31.1577 29.1781 31.0688L36.0188 29.3594C36.8207 29.1589 37.6577 29.1433 38.4665 29.3138C39.2753 29.4844 40.0348 29.8366 40.6875 30.3438L47.8938 35.95C50.4844 37.9656 50.7219 41.7938 48.4031 44.1094L45.1719 47.3406C42.8594 49.6531 39.4031 50.6688 36.1813 49.5344C27.935 46.6329 20.4477 41.912 14.275 35.7219C8.08528 29.5501 3.36441 22.0639 0.462507 13.8188C-0.668743 10.6 0.346882 7.14063 2.65938 4.82813L5.89063 1.59688H5.88751Z" fill="white"/>
</g>
</g>
<defs>
<filter id="filter0_d_299_2" x="-4.00146" y="-0.000915527" width="58.0016" height="58.0012" filterUnits="userSpaceOnUse" color-interpolation-filters="sRGB">
<feFlood flood-opacity="0" result="BackgroundImageFix"/>
<feColorMatrix in="SourceAlpha" type="matrix" values="0 0 0 0 0 0 0 0 0 0 0 0 0 0 0 0 0 0 127 0" result="hardAlpha"/>
<feOffset dy="4"/>
<feGaussianBlur stdDeviation="2"/>
<feComposite in2="hardAlpha" operator="out"/>
<feColorMatrix type="matrix" values="0 0 0 0 0 0 0 0 0 0 0 0 0 0 0 0 0 0 0.25 0"/>
<feBlend mode="normal" in2="BackgroundImageFix" result="effect1_dropShadow_299_2"/>
<feBlend mode="normal" in="SourceGraphic" in2="effect1_dropShadow_299_2" result="shape"/>
</filter>
<clipPath id="clip0_299_2">
<rect width="50" height="50" fill="white"/>
</clipPath>
</defs>
</svg>
