<svg width="697" height="523" viewBox="0 0 697 523" fill="none" xmlns="http://www.w3.org/2000/svg">
<g filter="url(#filter0_i_99_58)">
<path d="M0 121.162L10.6099 118.547C21.1423 115.932 42.3621 110.702 63.5044 116.803C84.6468 122.905 105.867 140.338 126.854 152.542C147.919 164.745 168.829 171.718 189.894 175.205C210.881 178.692 232.101 178.692 253.243 172.59C274.386 166.488 295.605 154.285 316.748 150.798C337.89 147.312 359.11 152.542 380.252 162.13C401.395 171.718 422.614 185.665 443.757 182.178C464.899 178.692 486.119 157.772 507.106 154.285C528.171 150.798 549.081 164.745 570.146 170.847C591.133 176.948 612.353 175.205 633.496 182.178C654.638 189.152 675.858 204.842 686.39 212.687L697 220.532V145.568L686.39 140.338C675.858 135.108 654.638 124.648 633.496 123.777C612.353 122.905 591.133 131.622 570.146 129.007C549.081 126.392 528.171 112.445 507.106 114.188C486.119 115.932 464.899 133.365 443.757 132.493C422.614 131.622 401.395 112.445 380.252 101.985C359.11 91.5251 337.89 89.7817 316.748 91.5251C295.605 93.2684 274.386 98.4984 253.243 108.087C232.101 117.675 210.881 131.622 189.894 129.878C168.829 128.135 147.919 110.702 126.854 97.6267C105.867 84.5517 84.6468 75.8351 63.5044 71.4767C42.3621 67.1184 21.1423 67.1184 10.6099 67.1184H0V121.162Z" fill="#69AEDF"/>
</g>
<g filter="url(#filter1_i_99_58)">
<path d="M0 246.682H10.6099C21.1423 246.682 42.3621 246.682 63.5044 251.912C84.6468 257.142 105.867 267.602 126.854 271.088C147.919 274.575 168.829 271.088 189.894 270.217C210.881 269.345 232.101 271.088 253.243 266.73C274.386 262.372 295.605 251.912 316.748 253.655C337.89 255.398 359.11 269.345 380.252 276.318C401.395 283.292 422.614 283.292 443.757 282.42C464.899 281.548 486.119 279.805 507.106 276.318C528.171 272.832 549.081 267.602 570.146 265.858C591.133 264.115 612.353 265.858 633.496 270.217C654.638 274.575 675.858 281.548 686.39 285.035L697 288.522V218.788L686.39 210.943C675.858 203.098 654.638 187.408 633.496 180.435C612.353 173.462 591.133 175.205 570.146 169.103C549.081 163.002 528.171 149.055 507.106 152.542C486.119 156.028 464.899 176.948 443.757 180.435C422.614 183.922 401.395 169.975 380.252 160.387C359.11 150.798 337.89 145.568 316.748 149.055C295.605 152.542 274.386 164.745 253.243 170.847C232.101 176.948 210.881 176.948 189.894 173.462C168.829 169.975 147.919 163.002 126.854 150.798C105.867 138.595 84.6468 121.162 63.5044 115.06C42.3621 108.958 21.1423 114.188 10.6099 116.803L0 119.418V246.682Z" fill="#4C8FC0"/>
</g>
<g filter="url(#filter2_i_99_58)">
<path d="M0 325.132L10.6099 321.645C21.1423 318.158 42.3621 311.185 63.5044 311.185C84.6468 311.185 105.867 318.158 126.854 319.902C147.919 321.645 168.829 318.158 189.894 322.517C210.881 326.875 232.101 339.078 253.243 341.693C274.386 344.308 295.605 337.335 316.748 334.72C337.89 332.105 359.11 333.848 380.252 333.848C401.395 333.848 422.614 332.105 443.757 332.105C464.899 332.105 486.119 333.848 507.106 332.105C528.171 330.362 549.081 325.132 570.146 319.902C591.133 314.672 612.353 309.442 633.496 316.415C654.638 323.388 675.858 342.565 686.39 352.153L697 361.742V286.778L686.39 283.292C675.858 279.805 654.638 272.832 633.496 268.473C612.353 264.115 591.133 262.372 570.146 264.115C549.081 265.858 528.171 271.088 507.106 274.575C486.119 278.062 464.899 279.805 443.757 280.677C422.614 281.548 401.395 281.548 380.252 274.575C359.11 267.602 337.89 253.655 316.748 251.912C295.605 250.168 274.386 260.628 253.243 264.987C232.101 269.345 210.881 267.602 189.894 268.473C168.829 269.345 147.919 272.832 126.854 269.345C105.867 265.858 84.6468 255.398 63.5044 250.168C42.3621 244.938 21.1423 244.938 10.6099 244.938H0V325.132Z" fill="#2E71A1"/>
</g>
<path d="M0 372.202L10.6099 367.843C21.1423 363.485 42.3621 354.768 63.5044 353.025C84.6468 351.282 105.867 356.512 126.854 358.255C147.919 359.998 168.829 358.255 189.894 360.87C210.881 363.485 232.101 370.458 253.243 369.587C274.386 368.715 295.605 359.998 316.748 359.127C337.89 358.255 359.11 365.228 380.252 366.1C401.395 366.972 422.614 361.742 443.757 362.613C464.899 363.485 486.119 370.458 507.106 370.458C528.171 370.458 549.081 363.485 570.146 359.998C591.133 356.512 612.353 356.512 633.496 362.613C654.638 368.715 675.858 380.918 686.39 387.02L697 393.122V359.998L686.39 350.41C675.858 340.822 654.638 321.645 633.496 314.672C612.353 307.698 591.133 312.928 570.146 318.158C549.081 323.388 528.171 328.618 507.106 330.362C486.119 332.105 464.899 330.362 443.757 330.362C422.614 330.362 401.395 332.105 380.252 332.105C359.11 332.105 337.89 330.362 316.748 332.977C295.605 335.592 274.386 342.565 253.243 339.95C232.101 337.335 210.881 325.132 189.894 320.773C168.829 316.415 147.919 319.902 126.854 318.158C105.867 316.415 84.6468 309.442 63.5044 309.442C42.3621 309.442 21.1423 316.415 10.6099 319.902L0 323.388V372.202Z" fill="#2E71A1"/>
<path d="M0 403.582L10.6099 397.48C21.1423 391.378 42.3621 379.175 63.5044 374.817C84.6468 370.458 105.867 373.945 126.854 374.817C147.919 375.688 168.829 373.945 189.894 378.303C210.881 382.662 232.101 393.122 253.243 394.865C274.386 396.608 295.605 389.635 316.748 388.763C337.89 387.892 359.11 393.122 380.252 393.122C401.395 393.122 422.614 387.892 443.757 388.763C464.899 389.635 486.119 396.608 507.106 397.48C528.171 398.352 549.081 393.122 570.146 387.892C591.133 382.662 612.353 377.432 633.496 383.533C654.638 389.635 675.858 407.068 686.39 415.785L697 424.502V391.378L686.39 385.277C675.858 379.175 654.638 366.972 633.496 360.87C612.353 354.768 591.133 354.768 570.146 358.255C549.081 361.742 528.171 368.715 507.106 368.715C486.119 368.715 464.899 361.742 443.757 360.87C422.614 359.998 401.395 365.228 380.252 364.357C359.11 363.485 337.89 356.512 316.748 357.383C295.605 358.255 274.386 366.972 253.243 367.843C232.101 368.715 210.881 361.742 189.894 359.127C168.829 356.512 147.919 358.255 126.854 356.512C105.867 354.768 84.6468 349.538 63.5044 351.282C42.3621 353.025 21.1423 361.742 10.6099 366.1L0 370.458V403.582Z" fill="#2E71A1"/>
<g filter="url(#filter3_i_99_58)">
<path d="M0 419.272L10.6099 414.042C21.1423 408.812 42.3621 398.352 63.5044 397.48C84.6468 396.608 105.867 405.325 126.854 407.068C147.919 408.812 168.829 403.582 189.894 404.453C210.881 405.325 232.101 412.298 253.243 416.657C274.386 421.015 295.605 422.758 316.748 425.373C337.89 427.988 359.11 431.475 380.252 431.475C401.395 431.475 422.614 427.988 443.757 425.373C464.899 422.758 486.119 421.015 507.106 420.143C528.171 419.272 549.081 419.272 570.146 414.913C591.133 410.555 612.353 401.838 633.496 406.197C654.638 410.555 675.858 427.988 686.39 436.705L697 445.422V422.758L686.39 414.042C675.858 405.325 654.638 387.892 633.496 381.79C612.353 375.688 591.133 380.918 570.146 386.148C549.081 391.378 528.171 396.608 507.106 395.737C486.119 394.865 464.899 387.892 443.757 387.02C422.614 386.148 401.395 391.378 380.252 391.378C359.11 391.378 337.89 386.148 316.748 387.02C295.605 387.892 274.386 394.865 253.243 393.122C232.101 391.378 210.881 380.918 189.894 376.56C168.829 372.202 147.919 373.945 126.854 373.073C105.867 372.202 84.6468 368.715 63.5044 373.073C42.3621 377.432 21.1423 389.635 10.6099 395.737L0 401.838V419.272Z" fill="#2E71A1"/>
</g>
<g filter="url(#filter4_i_99_58)">
<path d="M0 434.962L10.6099 433.218C21.1423 431.475 42.3621 427.988 63.5044 429.732C84.6468 431.475 105.867 438.448 126.854 440.192C147.919 441.935 168.829 438.448 189.894 437.577C210.881 436.705 232.101 438.448 253.243 440.192C274.386 441.935 295.605 443.678 316.748 447.165C337.89 450.652 359.11 455.882 380.252 455.01C401.395 454.138 422.614 447.165 443.757 443.678C464.899 440.192 486.119 440.192 507.106 440.192C528.171 440.192 549.081 440.192 570.146 437.577C591.133 434.962 612.353 429.732 633.496 434.962C654.638 440.192 675.858 455.882 686.39 463.727L697 471.572V443.678L686.39 434.962C675.858 426.245 654.638 408.812 633.496 404.453C612.353 400.095 591.133 408.812 570.146 413.17C549.081 417.528 528.171 417.528 507.106 418.4C486.119 419.272 464.899 421.015 443.757 423.63C422.614 426.245 401.395 429.732 380.252 429.732C359.11 429.732 337.89 426.245 316.748 423.63C295.605 421.015 274.386 419.272 253.243 414.913C232.101 410.555 210.881 403.582 189.894 402.71C168.829 401.838 147.919 407.068 126.854 405.325C105.867 403.582 84.6468 394.865 63.5044 395.737C42.3621 396.608 21.1423 407.068 10.6099 412.298L0 417.528V434.962Z" fill="#4C8FC0"/>
</g>
<g filter="url(#filter5_i_99_58)">
<path d="M0 466.342H10.6099C21.1423 466.342 42.3621 466.342 63.5044 468.957C84.6468 471.572 105.867 476.802 126.854 476.802C147.919 476.802 168.829 471.572 189.894 471.572C210.881 471.572 232.101 476.802 253.243 479.417C274.386 482.032 295.605 482.032 316.748 484.647C337.89 487.262 359.11 492.492 380.252 489.877C401.395 487.262 422.614 476.802 443.757 475.058C464.899 473.315 486.119 480.288 507.106 480.288C528.171 480.288 549.081 473.315 570.146 469.828C591.133 466.342 612.353 466.342 633.496 470.7C654.638 475.058 675.858 483.775 686.39 488.133L697 492.492V469.828L686.39 461.983C675.858 454.138 654.638 438.448 633.496 433.218C612.353 427.988 591.133 433.218 570.146 435.833C549.081 438.448 528.171 438.448 507.106 438.448C486.119 438.448 464.899 438.448 443.757 441.935C422.614 445.422 401.395 452.395 380.252 453.267C359.11 454.138 337.89 448.908 316.748 445.422C295.605 441.935 274.386 440.192 253.243 438.448C232.101 436.705 210.881 434.962 189.894 435.833C168.829 436.705 147.919 440.192 126.854 438.448C105.867 436.705 84.6468 429.732 63.5044 427.988C42.3621 426.245 21.1423 429.732 10.6099 431.475L0 433.218V466.342Z" fill="#69AEDF"/>
</g>
<defs>
<filter id="filter0_i_99_58" x="0" y="67.1184" width="697" height="157.413" filterUnits="userSpaceOnUse" color-interpolation-filters="sRGB">
<feFlood flood-opacity="0" result="BackgroundImageFix"/>
<feBlend mode="normal" in="SourceGraphic" in2="BackgroundImageFix" result="shape"/>
<feColorMatrix in="SourceAlpha" type="matrix" values="0 0 0 0 0 0 0 0 0 0 0 0 0 0 0 0 0 0 127 0" result="hardAlpha"/>
<feOffset dy="4"/>
<feGaussianBlur stdDeviation="2"/>
<feComposite in2="hardAlpha" operator="arithmetic" k2="-1" k3="1"/>
<feColorMatrix type="matrix" values="0 0 0 0 0 0 0 0 0 0 0 0 0 0 0 0 0 0 0.25 0"/>
<feBlend mode="normal" in2="shape" result="effect1_innerShadow_99_58"/>
</filter>
<filter id="filter1_i_99_58" x="0" y="112.218" width="697" height="180.304" filterUnits="userSpaceOnUse" color-interpolation-filters="sRGB">
<feFlood flood-opacity="0" result="BackgroundImageFix"/>
<feBlend mode="normal" in="SourceGraphic" in2="BackgroundImageFix" result="shape"/>
<feColorMatrix in="SourceAlpha" type="matrix" values="0 0 0 0 0 0 0 0 0 0 0 0 0 0 0 0 0 0 127 0" result="hardAlpha"/>
<feOffset dy="4"/>
<feGaussianBlur stdDeviation="2"/>
<feComposite in2="hardAlpha" operator="arithmetic" k2="-1" k3="1"/>
<feColorMatrix type="matrix" values="0 0 0 0 0 0 0 0 0 0 0 0 0 0 0 0 0 0 0.25 0"/>
<feBlend mode="normal" in2="shape" result="effect1_innerShadow_99_58"/>
</filter>
<filter id="filter2_i_99_58" x="0" y="244.938" width="697" height="120.803" filterUnits="userSpaceOnUse" color-interpolation-filters="sRGB">
<feFlood flood-opacity="0" result="BackgroundImageFix"/>
<feBlend mode="normal" in="SourceGraphic" in2="BackgroundImageFix" result="shape"/>
<feColorMatrix in="SourceAlpha" type="matrix" values="0 0 0 0 0 0 0 0 0 0 0 0 0 0 0 0 0 0 127 0" result="hardAlpha"/>
<feOffset dy="4"/>
<feGaussianBlur stdDeviation="2"/>
<feComposite in2="hardAlpha" operator="arithmetic" k2="-1" k3="1"/>
<feColorMatrix type="matrix" values="0 0 0 0 0 0 0 0 0 0 0 0 0 0 0 0 0 0 0.25 0"/>
<feBlend mode="normal" in2="shape" result="effect1_innerShadow_99_58"/>
</filter>
<filter id="filter3_i_99_58" x="0" y="370.928" width="697" height="78.494" filterUnits="userSpaceOnUse" color-interpolation-filters="sRGB">
<feFlood flood-opacity="0" result="BackgroundImageFix"/>
<feBlend mode="normal" in="SourceGraphic" in2="BackgroundImageFix" result="shape"/>
<feColorMatrix in="SourceAlpha" type="matrix" values="0 0 0 0 0 0 0 0 0 0 0 0 0 0 0 0 0 0 127 0" result="hardAlpha"/>
<feOffset dy="4"/>
<feGaussianBlur stdDeviation="2"/>
<feComposite in2="hardAlpha" operator="arithmetic" k2="-1" k3="1"/>
<feColorMatrix type="matrix" values="0 0 0 0 0 0 0 0 0 0 0 0 0 0 0 0 0 0 0.25 0"/>
<feBlend mode="normal" in2="shape" result="effect1_innerShadow_99_58"/>
</filter>
<filter id="filter4_i_99_58" x="0" y="395.676" width="697" height="79.8961" filterUnits="userSpaceOnUse" color-interpolation-filters="sRGB">
<feFlood flood-opacity="0" result="BackgroundImageFix"/>
<feBlend mode="normal" in="SourceGraphic" in2="BackgroundImageFix" result="shape"/>
<feColorMatrix in="SourceAlpha" type="matrix" values="0 0 0 0 0 0 0 0 0 0 0 0 0 0 0 0 0 0 127 0" result="hardAlpha"/>
<feOffset dy="4"/>
<feGaussianBlur stdDeviation="2"/>
<feComposite in2="hardAlpha" operator="arithmetic" k2="-1" k3="1"/>
<feColorMatrix type="matrix" values="0 0 0 0 0 0 0 0 0 0 0 0 0 0 0 0 0 0 0.25 0"/>
<feBlend mode="normal" in2="shape" result="effect1_innerShadow_99_58"/>
</filter>
<filter id="filter5_i_99_58" x="0" y="427.513" width="697" height="68.9785" filterUnits="userSpaceOnUse" color-interpolation-filters="sRGB">
<feFlood flood-opacity="0" result="BackgroundImageFix"/>
<feBlend mode="normal" in="SourceGraphic" in2="BackgroundImageFix" result="shape"/>
<feColorMatrix in="SourceAlpha" type="matrix" values="0 0 0 0 0 0 0 0 0 0 0 0 0 0 0 0 0 0 127 0" result="hardAlpha"/>
<feOffset dy="4"/>
<feGaussianBlur stdDeviation="2"/>
<feComposite in2="hardAlpha" operator="arithmetic" k2="-1" k3="1"/>
<feColorMatrix type="matrix" values="0 0 0 0 0 0 0 0 0 0 0 0 0 0 0 0 0 0 0.25 0"/>
<feBlend mode="normal" in2="shape" result="effect1_innerShadow_99_58"/>
</filter>
</defs>
</svg>
