<svg width="50" height="50" viewBox="0 0 50 50" fill="none" xmlns="http://www.w3.org/2000/svg">
<path d="M42.6952 7.26888C40.3926 4.95538 37.6505 3.12122 34.6286 1.87329C31.6068 0.625358 28.3657 -0.0113883 25.0942 0.000154157C11.3856 0.000154157 0.213461 11.1189 0.200904 24.7688C0.200904 29.1407 1.34982 33.3938 3.51896 37.1594L0 50L13.1969 46.5563C16.8477 48.5341 20.9377 49.5708 25.0942 49.5719H25.1067C38.8184 49.5719 49.9874 38.4532 50 24.7907C50.0031 21.5346 49.359 18.3101 48.1048 15.3029C46.8506 12.2956 45.011 9.56522 42.6921 7.26888H42.6952ZM25.0942 45.3781C21.3869 45.3794 17.7477 44.3862 14.5593 42.5031L13.8059 42.0531L5.97689 44.0969L8.06755 36.4938L7.57785 35.7094C5.50542 32.4292 4.40936 28.6314 4.41675 24.7563C4.41675 13.4251 13.6991 4.18139 25.1067 4.18139C27.8244 4.17654 30.5161 4.70725 33.0268 5.74292C35.5375 6.7786 37.8174 8.29875 39.735 10.2157C41.6594 12.1253 43.185 14.3952 44.2238 16.8946C45.2625 19.394 45.7939 22.0734 45.7873 24.7782C45.7747 36.15 36.4923 45.3781 25.0942 45.3781ZM36.4421 29.9594C35.8237 29.6501 32.7693 28.1532 32.1949 27.9407C31.6235 27.7376 31.206 27.6313 30.798 28.2501C30.3805 28.8657 29.1876 30.2688 28.8297 30.6719C28.4719 31.0876 28.1014 31.1344 27.4799 30.8282C26.8615 30.5157 24.8556 29.8657 22.4824 27.7501C20.6303 26.1094 19.3904 24.0782 19.02 23.4626C18.6621 22.8438 18.9854 22.5126 19.2962 22.2032C19.5693 21.9282 19.9146 21.4782 20.2254 21.122C20.5393 20.7657 20.6429 20.5032 20.8469 20.0907C21.051 19.672 20.9537 19.3157 20.7998 19.0063C20.6429 18.697 19.4029 15.6439 18.8787 14.4126C18.3764 13.197 17.8648 13.3657 17.4818 13.3501C17.1239 13.3282 16.7064 13.3282 16.2889 13.3282C15.9736 13.336 15.6634 13.4086 15.3776 13.5415C15.0918 13.6743 14.8367 13.8645 14.6283 14.1001C14.057 14.7189 12.4592 16.2157 12.4592 19.2688C12.4592 22.322 14.688 25.2563 15.0019 25.672C15.3095 26.0876 19.3778 32.3344 25.6215 35.0219C27.0969 35.6625 28.2584 36.0407 29.1656 36.3282C30.6567 36.8032 32.0034 36.7313 33.077 36.5782C34.2698 36.3969 36.7529 35.0782 37.2771 33.6313C37.7919 32.1813 37.7919 30.9438 37.635 30.6844C37.4812 30.4219 37.0637 30.2688 36.4421 29.9594Z" fill="white"/>
</svg>
